<svg width="35" height="35" viewBox="0 0 35 35" fill="none" xmlns="http://www.w3.org/2000/svg">
<mask id="mask0_18_25" style="mask-type:alpha" maskUnits="userSpaceOnUse" x="0" y="0" width="35" height="35">
<rect width="35" height="35" fill="white"/>
</mask>
<g mask="url(#mask0_18_25)">
<path d="M29.0938 30.625C25.9583 30.625 22.9019 29.9262 19.9245 28.5286C16.947 27.1311 14.3099 25.2839 12.013 22.987C9.71615 20.6901 7.86892 18.053 6.47135 15.0755C5.07378 12.0981 4.375 9.04167 4.375 5.90625C4.375 5.46875 4.52083 5.10417 4.8125 4.8125C5.10417 4.52083 5.46875 4.375 5.90625 4.375H11.8125C12.1528 4.375 12.4566 4.48438 12.724 4.70313C12.9913 4.92188 13.1493 5.20139 13.1979 5.54167L14.1458 10.6458C14.1944 10.9861 14.1884 11.296 14.1276 11.5755C14.0668 11.855 13.9271 12.1042 13.7083 12.3229L10.1719 15.8958C11.1927 17.6458 12.4748 19.2865 14.0182 20.8177C15.5616 22.349 17.2569 23.6736 19.1042 24.7917L22.5313 21.3646C22.75 21.1458 23.0356 20.9818 23.388 20.8724C23.7405 20.763 24.0868 20.7326 24.4271 20.7813L29.4583 21.8021C29.7986 21.875 30.0781 22.0391 30.2969 22.2943C30.5156 22.5495 30.625 22.8472 30.625 23.1875V29.0938C30.625 29.5313 30.4792 29.8958 30.1875 30.1875C29.8958 30.4792 29.5313 30.625 29.0938 30.625ZM8.78646 13.125L11.1927 10.7188L10.5729 7.29167H7.32813C7.44965 8.28819 7.61979 9.27257 7.83854 10.2448C8.05729 11.217 8.37326 12.1771 8.78646 13.125ZM21.8385 26.1771C22.7865 26.5903 23.7526 26.9184 24.737 27.1615C25.7214 27.4045 26.7118 27.5625 27.7083 27.6354V24.4271L24.2813 23.7344L21.8385 26.1771Z" fill="white"/>
</g>
</svg>
