<svg width="50" height="50" viewBox="0 0 50 50" fill="none" xmlns="http://www.w3.org/2000/svg">
<mask id="mask0_18_18" style="mask-type:alpha" maskUnits="userSpaceOnUse" x="0" y="0" width="50" height="50">
<rect width="50" height="50" fill="#2D29DB"/>
</mask>
<g mask="url(#mask0_18_18)">
<path d="M8.33329 41.6668C7.18746 41.6668 6.20656 41.2588 5.39058 40.4429C4.57461 39.6269 4.16663 38.646 4.16663 37.5002V12.5002C4.16663 11.3543 4.57461 10.3734 5.39058 9.55745C6.20656 8.74148 7.18746 8.3335 8.33329 8.3335H41.6666C42.8125 8.3335 43.7934 8.74148 44.6093 9.55745C45.4253 10.3734 45.8333 11.3543 45.8333 12.5002V25.0002H8.33329V37.5002H29.1666V41.6668H8.33329ZM8.33329 16.6668H41.6666V12.5002H8.33329V16.6668ZM39.5833 45.8335V39.5835H33.3333V35.4168H39.5833V29.1668H43.75V35.4168H50V39.5835H43.75V45.8335H39.5833Z" fill="#2D29DB"/>
</g>
</svg>
