<svg width="50" height="50" viewBox="0 0 50 50" fill="none" xmlns="http://www.w3.org/2000/svg">
<mask id="mask0_18_12" style="mask-type:alpha" maskUnits="userSpaceOnUse" x="0" y="0" width="50" height="50">
<rect width="50" height="50" fill="#2D29DB"/>
</mask>
<g mask="url(#mask0_18_12)">
<path d="M22.8124 37.4998L34.5833 25.729L31.5624 22.7082L22.7603 31.5103L18.3853 27.1353L15.4166 30.104L22.8124 37.4998ZM12.4999 45.8332C11.3541 45.8332 10.3732 45.4252 9.55721 44.6092C8.74124 43.7932 8.33325 42.8123 8.33325 41.6665V8.33317C8.33325 7.18734 8.74124 6.20643 9.55721 5.39046C10.3732 4.57449 11.3541 4.1665 12.4999 4.1665H29.1666L41.6666 16.6665V41.6665C41.6666 42.8123 41.2586 43.7932 40.4426 44.6092C39.6267 45.4252 38.6458 45.8332 37.4999 45.8332H12.4999ZM27.0833 18.7498V8.33317H12.4999V41.6665H37.4999V18.7498H27.0833Z" fill="#2D29DB"/>
</g>
</svg>
