<svg width="50" height="50" viewBox="0 0 50 50" fill="none" xmlns="http://www.w3.org/2000/svg">
<mask id="mask0_18_6" style="mask-type:alpha" maskUnits="userSpaceOnUse" x="0" y="0" width="50" height="50">
<rect width="50" height="50" fill="#2D29DB"/>
</mask>
<g mask="url(#mask0_18_6)">
<path d="M8.12504 44.7918L5.20837 41.8752L11.6667 35.4168H6.25004V31.2502H18.75V43.7502H14.5834V38.3335L8.12504 44.7918ZM41.875 44.7918L35.4167 38.3335V43.7502H31.25V31.2502H43.75V35.4168H38.3334L44.7917 41.8752L41.875 44.7918ZM6.25004 18.7502V14.5835H11.6667L5.20837 8.12516L8.12504 5.2085L14.5834 11.6668V6.25016H18.75V18.7502H6.25004ZM31.25 18.7502V6.25016H35.4167V11.6668L41.875 5.2085L44.7917 8.12516L38.3334 14.5835H43.75V18.7502H31.25Z" fill="#2D29DB"/>
</g>
</svg>
