<svg width="50" height="50" viewBox="0 0 50 50" fill="none" xmlns="http://www.w3.org/2000/svg">
<mask id="mask0_18_15" style="mask-type:alpha" maskUnits="userSpaceOnUse" x="0" y="0" width="50" height="50">
<rect width="50" height="50" fill="#2D29DB"/>
</mask>
<g mask="url(#mask0_18_15)">
<path d="M16.6666 46.8748L12.5 43.7498V35.4165H10.4166C9.27079 35.4165 8.28989 35.0085 7.47392 34.1925C6.65795 33.3766 6.24996 32.3957 6.24996 31.2498V15.6248C5.65968 15.6248 5.16489 15.4252 4.76558 15.0259C4.36628 14.6266 4.16663 14.1318 4.16663 13.5415C4.16663 12.9512 4.36628 12.4564 4.76558 12.0571C5.16489 11.6578 5.65968 11.4582 6.24996 11.4582H12.5V8.33317H11.4583C10.868 8.33317 10.3732 8.13352 9.97392 7.73421C9.57461 7.33491 9.37496 6.84012 9.37496 6.24984C9.37496 5.65956 9.57461 5.16477 9.97392 4.76546C10.3732 4.36616 10.868 4.1665 11.4583 4.1665H17.7083C18.2986 4.1665 18.7934 4.36616 19.1927 4.76546C19.592 5.16477 19.7916 5.65956 19.7916 6.24984C19.7916 6.84012 19.592 7.33491 19.1927 7.73421C18.7934 8.13352 18.2986 8.33317 17.7083 8.33317H16.6666V11.4582H22.9166C23.5069 11.4582 24.0017 11.6578 24.401 12.0571C24.8003 12.4564 25 12.9512 25 13.5415C25 14.1318 24.8003 14.6266 24.401 15.0259C24.0017 15.4252 23.5069 15.6248 22.9166 15.6248V31.2498C22.9166 32.3957 22.5086 33.3766 21.6927 34.1925C20.8767 35.0085 19.8958 35.4165 18.75 35.4165H16.6666V46.8748ZM35.4166 45.8332C33.125 45.8332 31.1632 45.0172 29.5312 43.3853C27.8993 41.7533 27.0833 39.7915 27.0833 37.4998V20.8332C27.0833 18.5415 27.8993 16.5797 29.5312 14.9478C31.1632 13.3158 33.125 12.4998 35.4166 12.4998C37.7083 12.4998 39.6701 13.3158 41.302 14.9478C42.934 16.5797 43.75 18.5415 43.75 20.8332V37.4998C43.75 39.7915 42.934 41.7533 41.302 43.3853C39.6701 45.0172 37.7083 45.8332 35.4166 45.8332ZM10.4166 31.2498H18.75V28.1248H15.1041C14.6875 28.1248 14.3229 27.9686 14.0104 27.6561C13.6979 27.3436 13.5416 26.979 13.5416 26.5623C13.5416 26.1457 13.6979 25.7811 14.0104 25.4686C14.3229 25.1561 14.6875 24.9998 15.1041 24.9998H18.75V21.8748H15.1041C14.6875 21.8748 14.3229 21.7186 14.0104 21.4061C13.6979 21.0936 13.5416 20.729 13.5416 20.3123C13.5416 19.8957 13.6979 19.5311 14.0104 19.2186C14.3229 18.9061 14.6875 18.7498 15.1041 18.7498H18.75V15.6248H10.4166V31.2498ZM35.4166 16.6665C34.2708 16.6665 33.2899 17.0745 32.4739 17.8905C31.6579 18.7064 31.25 19.6873 31.25 20.8332H39.5833C39.5833 19.6873 39.1753 18.7064 38.3593 17.8905C37.5434 17.0745 36.5625 16.6665 35.4166 16.6665ZM31.25 33.3332H39.5833V24.9998H31.25V33.3332ZM35.4166 41.6665C36.5625 41.6665 37.5434 41.2585 38.3593 40.4425C39.1753 39.6266 39.5833 38.6457 39.5833 37.4998H31.25C31.25 38.6457 31.6579 39.6266 32.4739 40.4425C33.2899 41.2585 34.2708 41.6665 35.4166 41.6665Z" fill="#2D29DB"/>
</g>
</svg>
