<svg width="40" height="67" viewBox="0 0 40 67" fill="none" xmlns="http://www.w3.org/2000/svg">
<path fill-rule="evenodd" clip-rule="evenodd" d="M14.5028 0.0742457C2.67907 0.401025 1.17355 0.703166 1.54961 2.66773C1.9101 4.5519 3.84873 4.94092 14.2784 5.22491C21.0461 5.40775 27.8009 6.18579 29.2908 6.95217C33.1655 8.94656 39.4404 7.95066 39.95 5.26121C40.2431 3.7155 39.2576 2.7987 36.7186 2.25407C34.7099 1.82225 31.8999 1.07144 30.4734 0.586459C29.047 0.100181 21.8605 -0.129343 14.5028 0.0742457ZM32.4186 3.5936C33.7244 5.16785 33.6803 5.53872 32.1877 5.53872C31.1737 5.53872 29.7836 4.97853 29.1002 4.29514C28.4155 3.61046 22.3182 2.85576 15.5492 2.61845L3.24186 2.18664L17.0236 1.91821C27.9318 1.70425 31.1413 2.05437 32.4186 3.5936ZM17.0651 9.83742C15.0565 14.7106 15.0098 14.6159 19.4511 14.6159C22.9264 14.6159 23.3414 14.1919 23.3414 10.6492C23.3414 6.17672 20.8386 6.61112 20.5949 11.1264C20.4769 13.301 20.2214 13.0559 19.5043 10.0773L18.5681 6.18709L17.0651 9.83742ZM25.503 7.70039C24.1453 9.05808 24.4929 14.6159 25.9348 14.6159C26.6481 14.6159 27.2316 12.8653 27.2316 10.7257C27.2316 6.69671 26.967 6.23507 25.503 7.70039ZM3.57252 11.3741C4.34409 15.4069 6.11673 15.582 6.86495 11.6982L7.42774 8.78057L7.6041 11.6982C7.81287 15.1528 9.93045 15.5859 10.7772 12.3466C11.3413 10.1849 11.3776 10.1849 11.5203 12.3466C11.7083 15.1748 13.7208 15.3097 14.7738 12.5645C16.2573 8.69888 15.5505 8.1322 9.25744 8.1322C3.23148 8.1322 2.97991 8.27614 3.57252 11.3741ZM2.91767 19.1584C0.595204 20.8208 0 22.5014 0 27.3979C0 30.7811 0.710615 34.259 1.57943 35.1278C2.59608 36.1444 3.02919 39.8972 2.79448 45.6444C2.41842 54.8772 4.22738 64.4432 6.63154 65.9293C9.18353 67.5061 10.951 63.8727 11.174 56.5889C11.4113 48.8966 13.6508 45.0868 17.1481 46.4276C19.6703 47.3963 20.7077 51.0207 20.7297 58.9528C20.7621 69.8014 25.787 68.502 28.3662 56.9779C29.2208 53.1577 29.5359 47.6271 29.0652 44.6874C28.4765 41.0033 28.8836 37.6616 30.3775 33.9283C34.2664 24.2105 29.9573 16.1136 21.771 17.7553C16.5205 18.8096 14.6804 18.8225 9.72557 17.8409C7.17358 17.3365 4.83166 17.789 2.91767 19.1584ZM28.6204 22.5014C30.3139 25.1766 30.0027 30.3415 27.924 34.067C26.661 36.3312 26.3355 39.6923 26.8426 45.2086C27.3068 50.2672 26.9411 54.929 25.8259 58.1761L24.0818 63.2437L23.2363 55.8043C22.243 47.0617 20.46 44.441 15.509 44.441C12.4254 44.441 11.5864 45.2618 9.87858 49.9521C8.77505 52.9826 7.67153 56.9221 7.42774 58.7051C7.05428 61.4231 6.71972 61.038 5.35684 56.3256C4.35705 52.8685 4.0601 48.0719 4.58528 43.8639C5.21031 38.8663 4.90039 35.9784 3.43766 33.1502C1.49514 29.391 1.76357 24.5956 4.08603 21.6054C5.80162 19.3944 27.1473 20.175 28.6204 22.5014Z" fill="black"/>
</svg>
