<svg width="100" height="126" viewBox="0 0 100 126" fill="none" xmlns="http://www.w3.org/2000/svg">
<rect x="16.6666" y="10.6061" width="78.7879" height="109.091" fill="white"/>
<path fill-rule="evenodd" clip-rule="evenodd" d="M0 62.8788V125.758H50H100V62.8788V0H50H0V62.8788ZM41.6667 19.697C45 21.3076 50.7955 22.6242 54.5455 22.6242C58.2955 22.6242 64.0909 21.3076 67.4242 19.697C70.7576 18.0864 76.3667 16.747 79.8894 16.7182C88.0242 16.653 91.3182 20.9 90.6227 30.5576L90.1515 37.1212L54.9242 37.5273L19.697 37.9348V30.2318C19.697 19.1667 21.4667 16.6561 29.2197 16.7182C32.7318 16.747 38.3333 18.0864 41.6667 19.697ZM90.9091 64.4879C90.9091 83.3697 90.5955 85.6985 87.0439 93.2061C80.4758 107.089 70.1091 113.636 54.6924 113.636C43.4273 113.636 39.6939 112.235 31.6606 104.992C22.5409 96.7682 19.7697 89.7167 19.7303 74.6212L19.697 62.1212H25.5636H31.4288L32.1242 74.1424C32.7167 84.3682 33.4545 86.9939 37.0652 91.7273C42.4803 98.8273 50.1333 102.124 58.203 100.833C64.2182 99.8712 74.2424 93.6212 74.2424 90.8318C74.2424 90.0409 70.1182 89.3939 65.0758 89.3939C50.0909 89.3939 39.6667 81.4864 38.2667 69.0545L37.4848 62.1212H43.7424C49.0667 62.1212 50 62.5909 50 65.2682C50 70.097 58.0318 77.2727 63.4348 77.2727C70.7924 77.2727 76.1864 71.5364 76.3652 63.5182L76.5152 56.8182L48.1061 56.4061L19.697 55.9939V49.9667V43.9394H55.303H90.9091V64.4879Z" fill="#0B096C"/>
</svg>
