<svg width="35" height="30" viewBox="0 0 35 30" fill="none" xmlns="http://www.w3.org/2000/svg">
<mask id="mask0_18_28" style="mask-type:alpha" maskUnits="userSpaceOnUse" x="0" y="0" width="35" height="30">
<rect width="35" height="30" fill="white"/>
</mask>
<g mask="url(#mask0_18_28)">
<path d="M5.83341 25C5.03133 25 4.3447 24.7552 3.77352 24.2656C3.20234 23.776 2.91675 23.1875 2.91675 22.5V7.5C2.91675 6.8125 3.20234 6.22396 3.77352 5.73438C4.3447 5.24479 5.03133 5 5.83341 5H29.1667C29.9688 5 30.6555 5.24479 31.2266 5.73438C31.7978 6.22396 32.0834 6.8125 32.0834 7.5V22.5C32.0834 23.1875 31.7978 23.776 31.2266 24.2656C30.6555 24.7552 29.9688 25 29.1667 25H5.83341ZM17.5001 16.25L5.83341 10V22.5H29.1667V10L17.5001 16.25ZM17.5001 13.75L29.1667 7.5H5.83341L17.5001 13.75ZM5.83341 10V7.5V22.5V10Z" fill="white"/>
</g>
</svg>
