<svg width="40" height="61" viewBox="0 0 40 61" fill="none" xmlns="http://www.w3.org/2000/svg">
<path fill-rule="evenodd" clip-rule="evenodd" d="M6.46665 0.936843C0.193414 3.65332 -1.97152 13.3278 2.00951 20.849C3.5404 23.7388 3.95524 27.2378 3.78435 35.8162C3.54276 48.0138 5.90804 57.5209 9.76885 59.8756C12.8507 61.7553 14.0822 58.9799 13.9373 50.4816C13.7947 42.146 16.0185 36.5634 19.6896 36.0389C23.9476 35.4296 26.4284 40.654 26.2858 49.9242C26.1502 58.6876 27.0907 61.2804 29.9993 60.1643C34.4599 58.4519 38.1251 42.76 36.4764 32.4327C35.6314 27.1447 35.8447 25.3604 37.7739 21.5785C40.7461 15.7531 40.7414 7.86652 37.7633 3.99627C35.6526 1.25269 34.7829 1.04762 25.1202 1.02287C19.4138 1.00755 13.6839 0.635143 12.3875 0.194378C11.0911 -0.246387 8.42652 0.088312 6.46665 0.936843ZM20.0479 4.17305C22.3165 4.17305 26.0842 3.81949 28.4212 3.3858C32.1218 2.70108 32.995 3.01457 35.1977 5.81354C38.0921 9.49522 38.5364 15.9983 36.0344 18.0748C35.1046 18.8467 32.5861 19.3087 30.4365 19.1025C27.3912 18.8102 26.4449 18.1279 26.1443 16.0089C25.2852 9.94895 14.8105 9.94895 13.9514 16.0089C13.6509 18.1279 12.7045 18.8102 9.65925 19.1025C7.50964 19.3087 4.99115 18.8467 4.0613 18.0748C1.55931 15.9983 2.00361 9.49522 4.89805 5.81354C7.1007 3.01457 7.97398 2.70108 11.6745 3.3858C14.0115 3.81949 17.7792 4.17305 20.0479 4.17305ZM23.5834 16.8503C23.5834 19.7518 25.9605 21.674 29.5479 21.674C32.4506 21.674 32.7381 22.1336 33.4264 27.8612C33.8353 31.2648 34.1747 36.4714 34.1795 39.4319C34.1901 45.0487 30.9786 57.7472 29.8366 56.6052C29.476 56.2434 29.0765 52.6112 28.9492 48.5336C28.8219 44.4559 28.103 39.6511 27.35 37.8574C25.6623 33.8316 21.171 31.9118 17.0804 33.4674C13.2632 34.9182 11.5732 39.2999 11.2997 48.4511C11.1795 52.4839 10.7942 56.069 10.4441 56.419C9.39055 57.4726 5.90568 45.2997 5.90568 40.568C5.90568 38.1449 6.24627 32.9017 6.66229 28.9183C7.34583 22.3894 7.68524 21.674 10.1024 21.674C14.5395 21.674 16.5123 20.393 16.5123 17.5091C16.5123 15.8663 17.3349 14.5935 18.5747 14.3177C21.653 13.6342 23.5834 14.61 23.5834 16.8503Z" fill="black"/>
</svg>
