<svg width="40" height="60" viewBox="0 0 40 60" fill="none" xmlns="http://www.w3.org/2000/svg">
<path fill-rule="evenodd" clip-rule="evenodd" d="M7.26469 0.379878C2.41672 2.30018 0 6.05239 0 11.6571C0 17.7086 1.62124 20.3953 4.58402 19.2584C5.94857 18.7341 6.17014 18.9969 5.40614 20.2319C4.83223 21.1617 4.1772 27.0461 3.95199 33.3083C3.38292 49.1223 7.50443 61.6805 12.6188 59.7179C14.1177 59.1427 14.5294 57.0784 14.5294 50.1357C14.5294 40.5367 16.5078 35.9042 20.6099 35.9042C24.1018 35.9042 25.8042 40.3841 25.9979 50.0885C26.0948 54.9074 26.5089 59.1851 26.9193 59.5944C27.3298 60.0048 28.7258 60.0048 30.0225 59.5932C33.8365 58.3824 36.5704 47.5544 36.2217 35.0446C35.9977 26.9735 36.4106 23.524 37.9338 20.7694C41.1629 14.925 40.5697 8.48364 36.4167 4.33066C31.3665 -0.719511 26.3502 -0.485831 21.4684 5.02928C19.404 7.36003 17.0054 9.26702 16.1385 9.26702C15.2704 9.26702 13.1515 11.4985 11.4298 14.224C7.56254 20.3517 6.56365 19.8226 9.38598 13.1427C10.9624 9.41231 12.3742 7.94 14.9144 7.37456C18.5916 6.5585 20.4174 3.7737 18.5201 1.8764C17.0466 0.402883 9.68141 -0.576639 7.26469 0.379878ZM13.9506 2.7857C15.5852 3.41289 15.2522 3.87904 12.2749 5.13098C9.82428 6.16136 8.28296 7.85161 7.74537 10.0988C6.09265 17.0088 2.42156 18.2159 2.42156 11.8484C2.42156 8.16399 4.19778 5.40826 7.87008 3.40078C10.7578 1.82071 11.2954 1.76622 13.9506 2.7857ZM35.0654 6.18315C37.0281 8.54781 36.924 18.5876 34.9105 21.0128C33.7832 22.3713 33.2892 27.0086 33.2723 36.3934C33.2529 46.731 32.7759 50.6661 31.2018 53.4605L29.1556 57.0929L29.1023 49.2228C29.0309 38.643 26.056 33.4826 20.0263 33.4826C16.4884 33.4826 15.4702 34.1219 13.7545 37.4177C12.6272 39.5826 11.3487 44.6218 10.9128 48.6174C10.1524 55.5782 10.0604 55.7392 8.6922 52.4738C7.89551 50.5716 7.26469 43.3069 7.26469 36.0362C7.26469 23.5555 7.39788 22.8847 10.42 20.072C12.155 18.4581 14.0487 15.9118 14.6275 14.4128C15.2256 12.8667 16.7112 11.6886 18.0637 11.6886C19.427 11.6886 21.3642 10.1351 22.592 8.05623C24.3549 5.07166 25.5293 4.42389 29.1714 4.42389C31.6099 4.42389 34.2627 5.21574 35.0654 6.18315Z" fill="black"/>
</svg>
