<svg width="50" height="62" viewBox="0 0 50 62" fill="none" xmlns="http://www.w3.org/2000/svg">
<path fill-rule="evenodd" clip-rule="evenodd" d="M9.47771 3.55024C9.47771 5.50256 10.1067 8.63306 10.876 10.5056C11.6453 12.378 12.1643 14.8154 12.0276 15.9198C11.8921 17.0254 12.3518 18.2822 13.0485 18.7128C13.8069 19.1822 14.3162 18.2459 14.3162 16.3843C14.3162 12.8752 19.0385 4.87598 21.1239 4.853C21.8739 4.84574 23.1803 5.67312 24.027 6.69283C25.262 8.18188 27.9813 8.48065 37.7828 8.20486L50 7.86253V4.23367V0.60481L38.0489 0.256439C28.5583 -0.0193541 25.6697 0.297567 24.0113 1.7975C21.9537 3.66031 17.9451 3.18493 17.9451 1.08019C17.9451 0.486267 16.0399 0 13.7114 0C9.83454 0 9.47771 0.298776 9.47771 3.55024ZM16.1306 4.23367C16.1306 7.83592 11.4083 7.47667 10.893 3.8345C10.5603 1.48904 10.9667 1.08261 13.3122 1.41526C15.1907 1.68137 16.1306 2.62125 16.1306 4.23367ZM49.0045 3.14622C50.231 6.34325 46.901 7.36901 36.4922 7.00128C26.0289 6.63235 24.471 6.06988 25.6201 3.07606C26.693 0.281841 47.9303 0.344742 49.0045 3.14622ZM1.61517 9.67697C2.02644 10.3423 2.60222 10.8866 2.89616 10.8866C3.1901 10.8866 3.4296 10.3423 3.4296 9.67697C3.4296 9.01167 2.85261 8.46734 2.14861 8.46734C1.44461 8.46734 1.2039 9.01167 1.61517 9.67697ZM6.12948 14.5154C6.96049 15.846 8.41082 16.9347 9.35191 16.9347C10.6668 16.9347 10.5555 16.3758 8.8729 14.5154C7.66932 13.1849 6.21899 12.0962 5.65168 12.0962C5.08315 12.0962 5.29847 13.1849 6.12948 14.5154ZM23.9932 13.3058C23.9932 13.9711 24.5375 14.5154 25.2028 14.5154C25.8681 14.5154 26.4124 13.9711 26.4124 13.3058C26.4124 12.6405 25.8681 12.0962 25.2028 12.0962C24.5375 12.0962 23.9932 12.6405 23.9932 13.3058ZM18.8523 15.3489C17.6886 15.6537 16.7354 16.4073 16.7354 17.023C16.7354 18.7322 18.6781 18.3608 20.3643 16.3299C21.1929 15.3319 21.6671 14.5783 21.4191 14.6558C21.1723 14.7332 20.0159 15.0453 18.8523 15.3489ZM1.42889 17.0968C3.03043 18.027 4.04046 18.0173 4.99727 17.0605C5.97101 16.0867 5.3662 15.7347 2.76431 15.7614C-0.363768 15.794 -0.528277 15.9585 1.42889 17.0968ZM2.38207 21.3123C-0.114586 23.0614 -0.335947 23.9323 0.307571 29.4772C0.704327 32.8908 1.493 40.7594 2.06031 46.9623C2.7377 54.3761 3.7308 58.8819 4.95856 60.1097C7.44312 62.5942 9.84664 60.9359 9.1378 57.2272C8.19309 52.2871 10.6535 44.756 13.2106 44.756C16.3423 44.756 17.9451 48.4163 17.9451 55.5627C17.9451 59.9911 18.412 61.6907 19.6276 61.6907C22.5404 61.6907 25.3141 52.4552 25.0262 43.7145C24.8822 39.2982 25.4012 34.5032 26.1826 33.0614C28.1627 29.401 26.641 23.1884 23.2142 20.9422C20.8881 19.4193 19.7111 19.3309 16.9507 20.474C14.5146 21.4829 12.6082 21.524 10.2265 20.618C5.91537 18.9789 5.68313 18.9995 2.38207 21.3123ZM23.7561 23.4412C25.7556 24.6775 25.5729 31.6981 23.4658 34.5456C22.2936 36.1314 21.9501 38.5325 22.4073 41.94C23.2093 47.8961 21.8582 58.3799 20.4066 57.4824C19.849 57.1389 19.4462 55.0172 19.5103 52.7685C19.6397 48.1961 16.3931 42.3367 13.7307 42.3367C10.2023 42.3367 7.05846 47.4026 7.05846 53.089C7.05846 57.4546 6.75606 58.2432 5.54644 57.0336C4.60898 56.0962 3.9824 51.7548 3.89773 45.6027C3.82273 40.1473 3.14171 34.1512 2.3857 32.2787C0.561592 27.762 0.635379 26.9866 3.1272 24.4948C4.7626 22.8594 7.18306 22.3973 13.7767 22.4627C18.47 22.5086 22.9601 22.9489 23.7561 23.4412Z" fill="black"/>
</svg>
